<?xml version="1.0" encoding="utf-8"?>
<!-- Svg Vector Icons : http://www.onlinewebfonts.com/icon -->
<!DOCTYPE svg PUBLIC "-//W3C//DTD SVG 1.1//EN" "http://www.w3.org/Graphics/SVG/1.1/DTD/svg11.dtd">
<svg version="1.1" xmlns="http://www.w3.org/2000/svg" xmlns:xlink="http://www.w3.org/1999/xlink" x="0px" y="0px" viewBox="0 0 256 256" enable-background="new 0 0 256 256" xml:space="preserve">
<metadata> Svg Vector Icons : http://www.onlinewebfonts.com/icon </metadata>
<g><g><path fill="#000000" d="M246,231.4c0,0,0-0.1,0-0.1c0-0.1,0-0.2,0-0.2c-0.9-46.2-28.3-85.9-67.7-104.5c10.7-11.9,17.2-27.7,17.2-44.9c0-37.2-30.2-67.4-67.4-67.4c-37.2,0-67.4,30.2-67.4,67.4s30.2,67.4,67.4,67.4c13.1,0,25.3-3.8,35.7-10.2c35.2,13.6,60.7,46.7,63.2,86.1H29.2c1.6-24.8,12.3-47.1,28.8-63.7c3.9-1.2,6.8-4.7,6.8-9.1c0-5.2-4.2-9.5-9.5-9.5c-3.5,0-6.5,1.9-8.2,4.8c-22.1,20.8-36.2,50.1-37.1,82.7c0,0.4-0.1,0.7-0.1,1.1c0,0.2,0,0.4,0.1,0.7c0,0.5,0,0.9,0,1.4h0.2c0.9,4.8,5.2,8.5,10.3,8.5c0.1,0,0.2,0,0.4,0h214.2c0.1,0,0.2,0,0.4,0c5.1,0,9.4-3.7,10.3-8.5h0.2C246,232.7,246,232.1,246,231.4L246,231.4z M128,132.3c-27.9,0-50.6-22.6-50.6-50.6s22.6-50.6,50.6-50.6c27.9,0,50.5,22.6,50.5,50.6C178.6,109.6,155.9,132.3,128,132.3L128,132.3z"/></g></g>
</svg>